Oswald-Thin-Regular-Pole.ufo
<glyph name="three" format="1">
  <advance width="936"/>
  <unicode hex="0033"/>
  <outline>
    <contour>
      <point x="444" y="-24" type="curve" smooth="yes"/>
      <point x="713" y="-24"/>
      <point x="818" y="167"/>
      <point x="818" y="433" type="curve" smooth="yes"/>
      <point x="818" y="744"/>
      <point x="670" y="871"/>
      <point x="582" y="888" type="curve"/>
      <point x="713" y="908"/>
      <point x="818" y="1035"/>
      <point x="818" y="1307" type="curve" smooth="yes"/>
      <point x="818" y="1495"/>
      <point x="746" y="1707"/>
      <point x="482" y="1707" type="curve" smooth="yes"/>
      <point x="204" y="1707"/>
      <point x="119" y="1519"/>
      <point x="119" y="1337" type="curve" smooth="yes"/>
      <point x="119" y="1321" type="line"/>
      <point x="175" y="1321" type="line"/>
      <point x="175" y="1342" type="line" smooth="yes"/>
      <point x="175" y="1588"/>
      <point x="325" y="1657"/>
      <point x="476" y="1657" type="curve" smooth="yes"/>
      <point x="640" y="1657"/>
      <point x="750" y="1596"/>
      <point x="750" y="1309" type="curve" smooth="yes"/>
      <point x="750" y="1036"/>
      <point x="674" y="909"/>
      <point x="463" y="909" type="curve" smooth="yes"/>
      <point x="409" y="909" type="line"/>
      <point x="409" y="873" type="line"/>
      <point x="463" y="873" type="line" smooth="yes"/>
      <point x="673" y="873"/>
      <point x="750" y="669"/>
      <point x="750" y="429" type="curve" smooth="yes"/>
      <point x="750" y="89"/>
      <point x="595" y="27"/>
      <point x="444" y="27" type="curve" smooth="yes"/>
      <point x="287" y="27"/>
      <point x="175" y="133"/>
      <point x="175" y="343" type="curve" smooth="yes"/>
      <point x="175" y="373" type="line"/>
      <point x="120" y="373" type="line"/>
      <point x="120" y="352" type="line" smooth="yes"/>
      <point x="120" y="181"/>
      <point x="201" y="-24"/>
    </contour>
  </outline>
</glyph>
<glyph name="seven" format="1">
  <advance width="936"/>
  <unicode hex="0037"/>
  <outline>
    <contour>
      <point x="366" y="0" type="line"/>
      <point x="430" y="0" type="line"/>
      <point x="787" y="1655" type="line"/>
      <point x="787" y="1688" type="line"/>
      <point x="143" y="1688" type="line"/>
      <point x="143" y="1632" type="line"/>
      <point x="718" y="1632" type="line"/>
    </contour>
  </outline>
</glyph>
<glyph name="eight" format="1">
  <advance width="936"/>
  <unicode hex="0038"/>
  <outline>
    <contour>
      <point x="468" y="-25" type="curve" smooth="yes"/>
      <point x="735" y="-25"/>
      <point x="834" y="171"/>
      <point x="834" y="434" type="curve" smooth="yes"/>
      <point x="834" y="803"/>
      <point x="654" y="852"/>
      <point x="555" y="884" type="curve"/>
      <point x="717" y="916"/>
      <point x="824" y="1057"/>
      <point x="824" y="1300" type="curve" smooth="yes"/>
      <point x="824" y="1517"/>
      <point x="744" y="1707"/>
      <point x="468" y="1707" type="curve" smooth="yes"/>
      <point x="191" y="1707"/>
      <point x="113" y="1523"/>
      <point x="113" y="1307" type="curve" smooth="yes"/>
      <point x="113" y="1064"/>
      <point x="219" y="915"/>
      <point x="381" y="884" type="curve"/>
      <point x="283" y="852"/>
      <point x="102" y="804"/>
      <point x="102" y="434" type="curve" smooth="yes"/>
      <point x="102" y="171"/>
      <point x="200" y="-25"/>
    </contour>
    <contour>
      <point x="468" y="29" type="curve" smooth="yes"/>
      <point x="301" y="29"/>
      <point x="169" y="122"/>
      <point x="169" y="438" type="curve" smooth="yes"/>
      <point x="169" y="695"/>
      <point x="254" y="831"/>
      <point x="468" y="861" type="curve"/>
      <point x="681" y="831"/>
      <point x="767" y="695"/>
      <point x="767" y="438" type="curve" smooth="yes"/>
      <point x="767" y="121"/>
      <point x="635" y="29"/>
    </contour>
    <contour>
      <point x="468" y="910" type="curve"/>
      <point x="253" y="926"/>
      <point x="177" y="1067"/>
      <point x="177" y="1296" type="curve" smooth="yes"/>
      <point x="177" y="1554"/>
      <point x="276" y="1649"/>
      <point x="468" y="1649" type="curve" smooth="yes"/>
      <point x="659" y="1649"/>
      <point x="760" y="1555"/>
      <point x="760" y="1296" type="curve" smooth="yes"/>
      <point x="760" y="1067"/>
      <point x="683" y="926"/>
    </contour>
  </outline>
</glyph>
<glyph name="nine" format="1">
  <advance width="936"/>
  <unicode hex="0039"/>
  <outline>
    <contour>
      <point x="484" y="1707" type="curve" smooth="yes"/>
      <point x="217" y="1707"/>
      <point x="109" y="1555"/>
      <point x="109" y="1246" type="curve" smooth="yes"/>
      <point x="109" y="829"/>
      <point x="202" y="731"/>
      <point x="470" y="731" type="curve" smooth="yes"/>
      <point x="588" y="731"/>
      <point x="708" y="785"/>
      <point x="768" y="808" type="curve"/>
      <point x="768" y="390" type="line" smooth="yes"/>
      <point x="768" y="120"/>
      <point x="650" y="39"/>
      <point x="504" y="31" type="curve" smooth="yes"/>
      <point x="293" y="19"/>
      <point x="209" y="81"/>
      <point x="209" y="380" type="curve"/>
      <point x="150" y="380" type="line"/>
      <point x="150" y="336" type="line" smooth="yes"/>
      <point x="150" y="81"/>
      <point x="233" y="-29"/>
      <point x="484" y="-24" type="curve" smooth="yes"/>
      <point x="719" y="-19"/>
      <point x="832" y="122"/>
      <point x="832" y="398" type="curve" smooth="yes"/>
      <point x="832" y="1218" type="line" smooth="yes"/>
      <point x="832" y="1563"/>
      <point x="735" y="1707"/>
    </contour>
    <contour>
      <point x="484" y="1651" type="curve" smooth="yes"/>
      <point x="659" y="1651"/>
      <point x="768" y="1584"/>
      <point x="768" y="1194" type="curve" smooth="yes"/>
      <point x="768" y="859" type="line"/>
      <point x="718" y="838"/>
      <point x="581" y="786"/>
      <point x="480" y="786" type="curve" smooth="yes"/>
      <point x="227" y="786"/>
      <point x="178" y="879"/>
      <point x="178" y="1244" type="curve" smooth="yes"/>
      <point x="178" y="1600"/>
      <point x="299" y="1651"/>
    </contour>
  </outline>
</glyph>
<glyph name="P" format="1">
  <advance width="996"/>
  <unicode hex="0050"/>
  <outline>
    <component base="uc_main_stem"/>
    <contour>
      <point x="197" y="800" type="line"/>
      <point x="594" y="800" type="line" smooth="yes"/>
      <point x="899" y="800"/>
      <point x="967" y="1050"/>
      <point x="967" y="1252" type="curve" smooth="yes"/>
      <point x="967" y="1482"/>
      <point x="890" y="1688"/>
      <point x="591" y="1688" type="curve" smooth="yes"/>
      <point x="195" y="1688" type="line"/>
      <point x="195" y="1634" type="line"/>
      <point x="591" y="1634" type="line" smooth="yes"/>
      <point x="796" y="1634"/>
      <point x="896" y="1533"/>
      <point x="896" y="1252" type="curve" smooth="yes"/>
      <point x="896" y="974"/>
      <point x="790" y="855"/>
      <point x="590" y="855" type="curve" smooth="yes"/>
      <point x="197" y="855" type="line"/>
    </contour>
  </outline>
</glyph>
<glyph name="X" format="1">
  <advance width="901"/>
  <unicode hex="0058"/>
  <outline>
    <contour>
      <point x="32" y="0" type="line"/>
      <point x="101" y="0" type="line"/>
      <point x="451" y="815" type="line"/>
      <point x="477" y="832" type="line"/>
      <point x="867" y="1689" type="line"/>
      <point x="798" y="1689" type="line"/>
      <point x="448" y="893" type="line"/>
      <point x="419" y="873" type="line"/>
    </contour>
    <contour>
      <point x="806" y="0" type="line"/>
      <point x="869" y="0" type="line"/>
      <point x="90" y="1689" type="line"/>
      <point x="33" y="1689" type="line"/>
    </contour>
  </outline>
</glyph>
<glyph name="backslash" format="1">
  <advance width="643"/>
  <unicode hex="005C"/>
  <outline>
    <contour>
      <point x="657" y="0" type="line"/>
      <point x="740" y="0" type="line"/>
      <point x="39" y="1670" type="line"/>
      <point x="-46" y="1670" type="line"/>
    </contour>
  </outline>
</glyph>
<glyph name="r" format="1">
  <advance width="461"/>
  <unicode hex="0072"/>
  <outline>
    <component base="lc_xheight_stem" xOffset="3"/>
    <contour>
      <point x="174" y="872" type="line"/>
      <point x="224" y="1008"/>
      <point x="335" y="1103"/>
      <point x="489" y="1103" type="curve" smooth="yes"/>
      <point x="503" y="1103" type="line"/>
      <point x="503" y="1164" type="line"/>
      <point x="489" y="1164" type="line" smooth="yes"/>
      <point x="378" y="1164"/>
      <point x="209" y="1077"/>
      <point x="174" y="928" type="curve"/>
    </contour>
  </outline>
</glyph>
<glyph name="bar" format="1">
  <advance width="411"/>
  <unicode hex="007C"/>
  <outline>
    <contour>
      <point x="157" y="-127" type="line"/>
      <point x="231" y="-127" type="line"/>
      <point x="231" y="1651" type="line"/>
      <point x="157" y="1651" type="line"/>
    </contour>
  </outline>
</glyph>
<glyph name="plusminus" format="1">
  <advance width="621"/>
  <unicode hex="00B1"/>
  <outline>
    <contour>
      <point x="285" y="382" type="line"/>
      <point x="361" y="382" type="line"/>
      <point x="361" y="573" type="line"/>
      <point x="552" y="573" type="line"/>
      <point x="552" y="643" type="line"/>
      <point x="361" y="643" type="line"/>
      <point x="361" y="834" type="line"/>
      <point x="285" y="834" type="line"/>
      <point x="285" y="643" type="line"/>
      <point x="93" y="643" type="line"/>
      <point x="93" y="573" type="line"/>
      <point x="285" y="573" type="line"/>
    </contour>
    <contour>
      <point x="93" y="0" type="line"/>
      <point x="552" y="0" type="line"/>
      <point x="552" y="70" type="line"/>
      <point x="93" y="70" type="line"/>
    </contour>
  </outline>
</glyph>
<glyph name="uni00B2" format="1">
  <advance width="793"/>
  <unicode hex="00B2"/>
  <outline>
    <contour>
      <point x="113" y="587" type="line"/>
      <point x="664" y="587" type="line"/>
      <point x="664" y="678" type="line"/>
      <point x="253" y="678" type="line"/>
      <point x="236" y="656"/>
      <point x="580" y="1200"/>
      <point x="552" y="1161" type="curve"/>
      <point x="600" y="1241"/>
      <point x="684" y="1392"/>
      <point x="684" y="1499" type="curve" smooth="yes"/>
      <point x="684" y="1701"/>
      <point x="607" y="1838"/>
      <point x="419" y="1838" type="curve" smooth="yes"/>
      <point x="201" y="1838"/>
      <point x="115" y="1682"/>
      <point x="115" y="1430" type="curve"/>
      <point x="223" y="1430" type="line"/>
      <point x="223" y="1607"/>
      <point x="253" y="1751"/>
      <point x="421" y="1751" type="curve" smooth="yes"/>
      <point x="525" y="1751"/>
      <point x="576" y="1656"/>
      <point x="576" y="1498" type="curve" smooth="yes"/>
      <point x="576" y="1402"/>
      <point x="489" y="1259"/>
      <point x="442" y="1184" type="curve"/>
      <point x="479" y="1242"/>
      <point x="101" y="651"/>
      <point x="113" y="667" type="curve"/>
    </contour>
  </outline>
</glyph>
<glyph name="threequarters" format="1">
  <advance width="1888"/>
  <unicode hex="00BE"/>
  <outline>
    <contour>
      <point x="307" y="561" type="curve" smooth="yes"/>
      <point x="500" y="561"/>
      <point x="579" y="710"/>
      <point x="579" y="910" type="curve" smooth="yes"/>
      <point x="579" y="997"/>
      <point x="502" y="1157"/>
      <point x="410" y="1219" type="curve"/>
      <point x="503" y="1265"/>
      <point x="579" y="1388"/>
      <point x="579" y="1489" type="curve" smooth="yes"/>
      <point x="579" y="1651"/>
      <point x="504" y="1812"/>
      <point x="321" y="1812" type="curve" smooth="yes"/>
      <point x="111" y="1812"/>
      <point x="27" y="1658"/>
      <point x="27" y="1407" type="curve"/>
      <point x="118" y="1407" type="line"/>
      <point x="118" y="1584"/>
      <point x="150" y="1727"/>
      <point x="322" y="1727" type="curve" smooth="yes"/>
      <point x="437" y="1727"/>
      <point x="488" y="1632"/>
      <point x="488" y="1473" type="curve" smooth="yes"/>
      <point x="488" y="1405"/>
      <point x="430" y="1289"/>
      <point x="314" y="1245" type="curve"/>
      <point x="314" y="1192" type="line"/>
      <point x="414" y="1163"/>
      <point x="488" y="981"/>
      <point x="488" y="911" type="curve" smooth="yes"/>
      <point x="488" y="725"/>
      <point x="432" y="645"/>
      <point x="308" y="645" type="curve" smooth="yes"/>
      <point x="149" y="645"/>
      <point x="118" y="787"/>
      <point x="118" y="963" type="curve"/>
      <point x="27" y="963" type="line"/>
      <point x="27" y="715"/>
      <point x="106" y="561"/>
    </contour>
    <contour>
      <point x="1755" y="5" type="line"/>
      <point x="1855" y="5" type="line"/>
      <point x="1855" y="289" type="line"/>
      <point x="1991" y="289" type="line"/>
      <point x="1991" y="368" type="line"/>
      <point x="1855" y="368" type="line"/>
      <point x="1855" y="1194" type="line"/>
      <point x="1709" y="1194" type="line"/>
      <point x="1359" y="362" type="line"/>
      <point x="1359" y="289" type="line"/>
      <point x="1755" y="289" type="line"/>
    </contour>
    <contour>
      <point x="669" y="0" type="line"/>
      <point x="799" y="0" type="line"/>
      <point x="1341" y="1673" type="line"/>
      <point x="1211" y="1673" type="line"/>
    </contour>
    <contour>
      <point x="1468" y="368" type="line"/>
      <point x="1754" y="1034" type="line"/>
      <point x="1755" y="368" type="line"/>
    </contour>
  </outline>
</glyph>
<glyph name="dotlessi" format="1">
  <advance width="352"/>
  <unicode hex="0131"/>
  <outline>
    <contour>
      <point x="135" y="0" type="line"/>
      <point x="207" y="0" type="line"/>
      <point x="207" y="1153" type="line"/>
      <point x="135" y="1153" type="line"/>
    </contour>
  </outline>
</glyph>
<glyph name="uni0409" format="1">
  <advance width="1805"/>
  <unicode hex="0409"/>
  <outline>
    <component base="cyrillic_uc_right_bowl" xOffset="567"/>
    <component base="uc_main_stem" xOffset="715" yOffset="2"/>
    <component base="uc_main_stem" yScale="0.726012" xOffset="124" yOffset="448"/>
    <contour>
      <point x="20" y="0" type="line"/>
      <point x="221" y="0" type="line" smooth="yes"/>
      <point x="541" y="0"/>
      <point x="617" y="156"/>
      <point x="617" y="448" type="curve"/>
      <point x="205" y="448" type="line"/>
      <point x="205" y="329"/>
      <point x="152" y="283"/>
      <point x="20" y="286" type="curve"/>
    </contour>
    <contour>
      <point x="418" y="1333" type="line"/>
      <point x="1000" y="1333" type="line"/>
      <point x="1000" y="1628" type="line"/>
      <point x="418" y="1628" type="line"/>
    </contour>
  </outline>
</glyph>
<glyph name="afii10018" format="1">
  <advance width="1058"/>
  <unicode hex="0411"/>
  <outline>
    <component base="cyrillic_uc_right_bowl" xOffset="7"/>
    <component base="uc_main_stem" xOffset="7"/>
    <contour>
      <point x="848" y="1633" type="line"/>
      <point x="848" y="1688" type="line"/>
      <point x="204" y="1688" type="line"/>
      <point x="204" y="1633" type="line"/>
    </contour>
  </outline>
</glyph>
<glyph name="afii10021" format="1">
  <advance width="1112"/>
  <unicode hex="0414"/>
  <outline>
    <component base="afii10029" xOffset="-19"/>
    <contour>
      <point x="16" y="-201" type="line"/>
      <point x="67" y="-201" type="line"/>
      <point x="77" y="0" type="line"/>
      <point x="987" y="0" type="line"/>
      <point x="998" y="-201" type="line"/>
      <point x="1050" y="-201" type="line"/>
      <point x="1050" y="57" type="line"/>
      <point x="16" y="57" type="line"/>
    </contour>
  </outline>
</glyph>
<glyph name="afii10024" format="1">
  <advance width="1570"/>
  <unicode hex="0416"/>
  <outline>
    <component base="uc_main_stem" xOffset="582"/>
    <contour>
      <point x="776" y="715" type="line"/>
      <point x="776" y="819" type="line"/>
      <point x="306" y="1688" type="line"/>
      <point x="240" y="1688" type="line"/>
      <point x="620" y="978" type="line"/>
      <point x="201" y="0" type="line"/>
      <point x="270" y="0" type="line"/>
      <point x="658" y="924" type="line"/>
    </contour>
    <contour>
      <point x="776" y="715" type="line"/>
      <point x="894" y="924" type="line"/>
      <point x="1282" y="0" type="line"/>
      <point x="1351" y="0" type="line"/>
      <point x="932" y="978" type="line"/>
      <point x="1312" y="1688" type="line"/>
      <point x="1246" y="1688" type="line"/>
      <point x="776" y="819" type="line"/>
    </contour>
  </outline>
</glyph>
<glyph name="afii10041" format="1">
  <advance width="1006"/>
  <unicode hex="0427"/>
  <outline>
    <component base="uc_main_stem" xOffset="618"/>
    <contour>
      <point x="815" y="857" type="line"/>
      <point x="771" y="827"/>
      <point x="657" y="794"/>
      <point x="536" y="794" type="curve" smooth="yes"/>
      <point x="352" y="794"/>
      <point x="182" y="839"/>
      <point x="182" y="1091" type="curve" smooth="yes"/>
      <point x="182" y="1688" type="line"/>
      <point x="118" y="1688" type="line"/>
      <point x="118" y="1090" type="line" smooth="yes"/>
      <point x="118" y="830"/>
      <point x="288" y="744"/>
      <point x="537" y="744" type="curve" smooth="yes"/>
      <point x="622" y="744"/>
      <point x="716" y="760"/>
      <point x="815" y="794" type="curve"/>
    </contour>
  </outline>
</glyph>
<glyph name="afii10047" format="1">
  <advance width="971"/>
  <unicode hex="042D"/>
  <outline>
    <component base="C" xScale="-1" yScale="-1" xOffset="1002" yOffset="1682"/>
    <contour>
      <point x="379" y="856" type="line"/>
      <point x="844" y="856" type="line"/>
      <point x="844" y="908" type="line"/>
      <point x="379" y="908" type="line"/>
    </contour>
  </outline>
</glyph>
<glyph name="afii10072" format="1">
  <advance width="1017"/>
  <unicode hex="0436"/>
  <outline>
    <component base="lc_xheight_stem" xOffset="342"/>
    <contour>
      <point x="96" y="1152" type="line"/>
      <point x="32" y="1152" type="line"/>
      <point x="348" y="663" type="line"/>
      <point x="14" y="0" type="line"/>
      <point x="81" y="0" type="line"/>
      <point x="386" y="625" type="line"/>
      <point x="477" y="491" type="line"/>
      <point x="543" y="491" type="line"/>
      <point x="632" y="625" type="line"/>
      <point x="936" y="0" type="line"/>
      <point x="1003" y="0" type="line"/>
      <point x="669" y="663" type="line"/>
      <point x="984" y="1152" type="line"/>
      <point x="921" y="1152" type="line"/>
      <point x="543" y="571" type="line"/>
      <point x="477" y="571" type="line"/>
    </contour>
  </outline>
</glyph>
<glyph name="afii10103" format="1">
  <advance width="353"/>
  <unicode hex="0456"/>
  <outline>
    <component base="lc_xheight_stem"/>
    <contour>
      <point x="135" y="1331" type="line"/>
      <point x="199" y="1331" type="line"/>
      <point x="199" y="1503" type="line"/>
      <point x="135" y="1503" type="line"/>
    </contour>
  </outline>
</glyph>
<glyph name="quotesinglbase" format="1">
  <advance width="322"/>
  <unicode hex="201A"/>
  <outline>
    <contour>
      <point x="151" y="-209" type="line"/>
      <point x="223" y="-148"/>
      <point x="249" y="-89"/>
      <point x="249" y="30" type="curve" smooth="yes"/>
      <point x="249" y="125" type="line"/>
      <point x="134" y="125" type="line"/>
      <point x="134" y="0" type="line"/>
      <point x="208" y="0" type="line"/>
      <point x="208" y="-31"/>
      <point x="203" y="-129"/>
      <point x="136" y="-192" type="curve"/>
    </contour>
  </outline>
</glyph>
<glyph name="quotedblright" format="1">
  <advance width="570"/>
  <unicode hex="201D"/>
  <outline>
    <contour>
      <point x="126" y="1288" type="line"/>
      <point x="179" y="1310"/>
      <point x="225" y="1326"/>
      <point x="225" y="1673" type="curve"/>
      <point x="87" y="1673" type="line"/>
      <point x="87" y="1544" type="line"/>
      <point x="215" y="1544" type="line"/>
      <point x="216" y="1521"/>
      <point x="243" y="1342"/>
      <point x="123" y="1295" type="curve"/>
    </contour>
    <contour>
      <point x="382" y="1288" type="line"/>
      <point x="434" y="1310"/>
      <point x="481" y="1326"/>
      <point x="481" y="1673" type="curve"/>
      <point x="343" y="1673" type="line"/>
      <point x="343" y="1544" type="line"/>
      <point x="471" y="1544" type="line"/>
      <point x="472" y="1521"/>
      <point x="498" y="1342"/>
      <point x="379" y="1295" type="curve"/>
    </contour>
  </outline>
</glyph>
<glyph name="trademark" format="1">
  <advance width="1048"/>
  <unicode hex="2122"/>
  <outline>
    <contour>
      <point x="600" y="686" type="line"/>
      <point x="657" y="686" type="line"/>
      <point x="657" y="1467" type="line"/>
      <point x="883" y="686" type="line"/>
      <point x="907" y="686" type="line"/>
      <point x="1135" y="1481" type="line"/>
      <point x="1135" y="686" type="line"/>
      <point x="1194" y="686" type="line"/>
      <point x="1194" y="1409" type="line"/>
      <point x="1083" y="1409" type="line"/>
      <point x="896" y="833" type="line"/>
      <point x="730" y="1409" type="line"/>
      <point x="600" y="1409" type="line"/>
    </contour>
    <contour>
      <point x="174" y="686" type="line"/>
      <point x="243" y="686" type="line"/>
      <point x="243" y="1364" type="line"/>
      <point x="407" y="1364" type="line"/>
      <point x="407" y="1409" type="line"/>
      <point x="11" y="1409" type="line"/>
      <point x="11" y="1364" type="line"/>
      <point x="174" y="1364" type="line"/>
    </contour>
  </outline>
</glyph>
<glyph name="cyrillic_uc_right_bowl" format="1">
  <advance width="0"/>
  <outline>
    <contour>
      <point x="196" y="956" type="line"/>
      <point x="196" y="895" type="line"/>
      <point x="571" y="895" type="line" smooth="yes"/>
      <point x="819" y="895"/>
      <point x="904" y="721"/>
      <point x="904" y="466" type="curve" smooth="yes"/>
      <point x="904" y="229"/>
      <point x="828" y="61"/>
      <point x="571" y="61" type="curve" smooth="yes"/>
      <point x="196" y="61" type="line"/>
      <point x="196" y="0" type="line"/>
      <point x="567" y="0" type="line" smooth="yes"/>
      <point x="874" y="0"/>
      <point x="974" y="215"/>
      <point x="974" y="463" type="curve" smooth="yes"/>
      <point x="974" y="766"/>
      <point x="850" y="956"/>
      <point x="566" y="956" type="curve" smooth="yes"/>
    </contour>
  </outline>
</glyph>
